<?xml version="1.0" encoding="utf-8"?>
<!-- Svg Vector Icons : http://www.onlinewebfonts.com/icon -->
<!DOCTYPE svg PUBLIC "-//W3C//DTD SVG 1.1//EN" "http://www.w3.org/Graphics/SVG/1.1/DTD/svg11.dtd">
<svg version="1.1" xmlns="http://www.w3.org/2000/svg" xmlns:xlink="http://www.w3.org/1999/xlink" x="0px" y="0px" viewBox="0 0 1000 1000" enable-background="new 0 0 1000 1000" xml:space="preserve">
<metadata> Svg Vector Icons : http://www.onlinewebfonts.com/icon </metadata>
<g><path d="M871.7,990H128.3c-37.3,0-67.6-30.3-67.6-67.6V179c0-37.3,30.3-67.6,67.6-67.6h67.6v33.8c0,56,45.4,101.4,101.4,101.4c56,0,101.4-45.4,101.4-101.4v-33.8h202.8v33.8c0,56,45.4,101.4,101.4,101.4c56,0,101.4-45.4,101.4-101.4v-33.8h67.6c37.3,0,67.6,30.3,67.6,67.6v743.5C939.3,959.7,909.1,990,871.7,990z M871.7,347.9H128.3v574.5h743.5L871.7,347.9L871.7,347.9z M297.2,516.9H195.9V415.5h101.4V516.9z M297.2,685.9H195.9V584.5h101.4V685.9L297.2,685.9z M297.2,854.8H195.9V753.5h101.4V854.8L297.2,854.8z M466.2,516.9H364.8V415.5h101.4V516.9z M466.2,685.9H364.8V584.5h101.4V685.9L466.2,685.9z M466.2,854.8H364.8V753.5h101.4V854.8L466.2,854.8z M635.2,516.9H533.8V415.5h101.4V516.9z M635.2,685.9H533.8V584.5h101.4V685.9L635.2,685.9z M635.2,854.8H533.8V753.5h101.4V854.8L635.2,854.8z M804.1,516.9H702.8V415.5h101.4V516.9z M804.1,685.9H702.8V584.5h101.4V685.9L804.1,685.9z M804.1,854.8H702.8V753.5h101.4V854.8L804.1,854.8z M701.7,212.8c-36.7,0-66.5-29.8-66.5-66.5V76.5c0-36.7,29.8-66.5,66.5-66.5c36.7,0,66.5,29.8,66.5,66.5v69.7C768.2,183,738.4,212.8,701.7,212.8z M296.2,212.8c-36.7,0-66.5-29.8-66.5-66.5V76.5c0-36.7,29.8-66.5,66.5-66.5c36.7,0,66.5,29.8,66.5,66.5v69.7C362.7,183,332.9,212.8,296.2,212.8z" fill="#627D98"/></g>
</svg>