<?xml version="1.0" encoding="iso-8859-1"?>
<!-- Generator: Adobe Illustrator 18.1.1, SVG Export Plug-In . SVG Version: 6.00 Build 0)  -->
<svg version="1.1" id="Capa_1" xmlns="http://www.w3.org/2000/svg" xmlns:xlink="http://www.w3.org/1999/xlink" x="0px" y="0px"
	 viewBox="0 0 28.034 28.034" style="enable-background:new 0 0 28.034 28.034;" xml:space="preserve">
<g>
	<path style="fill:#4285f4;" d="M26.092,1.846H1.942C0.872,1.846,0,2.717,0,3.788v13.389c0,1.07,0.871,1.942,1.942,1.942h2.396
		l3.051,2.961l0.098,0.083c0.366,0.273,0.761,0.418,1.143,0.418c0.733,0,1.522-0.549,1.52-1.754v-1.709h2.768
		c-1.087,1.67-1.741,3.776-1.741,6.069v1h16.045v-1c0-2.293-0.655-4.399-1.742-6.069h0.612c1.07,0,1.942-0.871,1.942-1.942V3.788
		C28.034,2.718,27.163,1.846,26.092,1.846z M13.225,24.187c0.204-2.045,1.028-3.838,2.215-5.069c1.032-1.07,2.336-1.716,3.758-1.716
		c1.422,0,2.727,0.646,3.759,1.716c1.187,1.231,2.011,3.024,2.215,5.069H13.225z M16.089,11.907c0-1.715,1.395-3.11,3.11-3.11
		c1.714,0,3.11,1.396,3.11,3.11s-1.395,3.11-3.11,3.11C17.484,15.017,16.089,13.622,16.089,11.907z M23.728,17.118
		c-0.497-0.416-1.035-0.76-1.604-1.033c1.317-0.925,2.185-2.45,2.185-4.178c0-2.818-2.292-5.11-5.11-5.11s-5.11,2.293-5.11,5.11
		c0,1.729,0.868,3.253,2.185,4.178c-0.568,0.273-1.107,0.617-1.604,1.033H8.152l-0.003,2.91l-2.999-2.91H4.745l-2.743,0.058
		L1.944,3.845l24.092-0.058l0.058,13.331H23.728z M3.818,5.422h10.947V6.85H3.818V5.422z M12.176,9.69H3.818V8.262h8.358V9.69z
		 M12.176,12.53H3.818v-1.428h8.358V12.53z M3.818,13.941h8.99v1.428h-8.99C3.818,15.369,3.818,13.941,3.818,13.941z"/>
</g>
<g>
</g>
<g>
</g>
<g>
</g>
<g>
</g>
<g>
</g>
<g>
</g>
<g>
</g>
<g>
</g>
<g>
</g>
<g>
</g>
<g>
</g>
<g>
</g>
<g>
</g>
<g>
</g>
<g>
</g>
</svg>
